<?xml version="1.0" standalone="no"?>
<!DOCTYPE svg PUBLIC "-//W3C//DTD SVG 20010904//EN"
 "http://www.w3.org/TR/2001/REC-SVG-20010904/DTD/svg10.dtd">
<svg version="1.0" xmlns="http://www.w3.org/2000/svg"
 width="512.000000pt" height="512.000000pt" viewBox="0 0 512.000000 512.000000"
 preserveAspectRatio="xMidYMid meet">

<g transform="translate(0.000000,512.000000) scale(0.100000,-0.100000)"
fill="#000000" stroke="none">
<path d="M582 4658 c-24 -12 -544 -691 -570 -744 -21 -44 -9 -93 31 -131 17
-17 344 -268 726 -557 754 -571 734 -558 780 -500 26 33 27 65 4 92 -10 11
-325 253 -700 537 -376 284 -683 519 -683 521 0 5 451 606 470 627 4 5 362
-260 795 -588 433 -329 800 -605 816 -614 26 -14 31 -15 56 -1 39 22 57 59 45
91 -7 17 -283 232 -837 652 -793 602 -828 627 -868 626 -23 0 -52 -5 -65 -11z"/>
<path d="M3623 4057 c-1299 -985 -1342 -1017 -1347 -1017 -3 0 -22 11 -42 25
-20 14 -40 25 -45 25 -4 0 -60 -68 -124 -150 -106 -137 -128 -159 -243 -247
-70 -53 -491 -373 -937 -711 -445 -338 -825 -628 -842 -645 -38 -35 -51 -84
-34 -126 7 -15 135 -189 284 -387 240 -316 277 -360 310 -371 29 -10 44 -10
72 0 19 6 375 271 792 587 417 316 887 672 1045 791 l287 217 63 -5 c60 -5 65
-4 96 25 37 35 40 52 12 77 -19 17 -19 18 24 51 28 21 50 31 63 28 20 -6 62
35 64 60 0 6 31 35 70 63 622 469 1862 1413 1886 1436 40 38 52 87 31 131 -29
59 -546 732 -573 744 -14 7 -43 12 -65 12 -35 0 -101 -47 -847 -613z m1093
135 c198 -263 234 -316 223 -327 -8 -7 -977 -743 -2153 -1635 l-2140 -1622
-20 28 c-12 16 -119 157 -238 314 -120 157 -216 289 -215 295 4 12 4290 3264
4299 3262 4 -1 113 -143 244 -315z"/>
<path d="M4394 4047 c-50 -43 -24 -117 41 -117 74 0 95 98 28 129 -33 15 -38
14 -69 -12z"/>
<path d="M3852 3804 c-65 -49 -102 -83 -102 -95 0 -10 53 -90 118 -178 87
-120 122 -160 138 -161 12 0 65 32 118 71 75 55 96 76 96 94 0 22 -25 45 -48
45 -5 0 -39 -22 -75 -50 l-66 -50 -32 41 c-17 22 -30 41 -28 43 2 1 21 15 42
30 38 29 46 53 25 74 -18 18 -36 15 -72 -13 -18 -14 -37 -25 -42 -25 -5 0 -21
17 -36 38 l-26 38 66 49 c37 28 68 58 70 68 4 17 -23 57 -38 57 -3 0 -52 -34
-108 -76z"/>
<path d="M3596 3609 c-14 -11 -26 -24 -26 -29 0 -4 27 -45 60 -89 33 -45 56
-81 51 -81 -5 0 -51 20 -102 45 -51 25 -102 45 -114 45 -28 0 -65 -27 -65 -49
0 -10 54 -91 120 -179 86 -117 125 -162 140 -162 20 0 60 32 60 48 0 5 -27 45
-60 90 -33 45 -58 82 -55 82 3 0 50 -20 105 -45 55 -25 111 -45 124 -45 29 0
60 33 54 58 -8 29 -238 332 -253 332 -7 0 -24 -9 -39 -21z"/>
<path d="M3192 3314 c-61 -45 -102 -83 -102 -93 0 -30 237 -341 259 -341 20 0
221 143 221 158 0 16 -32 52 -47 52 -8 0 -46 -22 -83 -50 l-69 -49 -30 41 -30
41 39 28 c48 35 55 75 16 85 -18 4 -35 -2 -62 -22 l-37 -28 -28 34 c-16 19
-29 38 -29 42 0 4 29 29 64 55 36 27 67 53 70 60 5 12 -30 63 -43 63 -4 0 -53
-34 -109 -76z"/>
<path d="M2905 3093 c-74 -38 -112 -98 -101 -158 9 -45 145 -229 185 -250 17
-8 42 -15 56 -15 37 0 97 33 133 75 42 47 45 118 7 159 -30 32 -35 32 -69 1
-22 -20 -25 -28 -16 -44 14 -26 13 -64 -2 -79 -7 -7 -24 -12 -40 -12 -23 0
-38 14 -93 88 -71 96 -78 126 -34 151 27 15 39 12 75 -14 19 -14 23 -14 47 6
34 26 34 44 -2 80 -24 23 -38 29 -73 29 -24 -1 -56 -8 -73 -17z"/>
<path d="M2595 2872 c-16 -11 -47 -38 -67 -60 -47 -52 -52 -107 -14 -157 40
-52 73 -60 173 -45 74 11 87 10 100 -3 33 -33 -20 -87 -86 -87 -31 0 -61 -22
-61 -46 0 -20 36 -54 58 -54 70 0 174 74 191 136 13 48 -3 96 -44 133 -47 41
-71 46 -165 30 -63 -10 -83 -10 -93 0 -20 20 12 63 61 81 58 22 68 33 54 65
-14 31 -62 34 -107 7z"/>
<path d="M2178 2560 c-72 -48 -163 -125 -165 -140 -2 -8 47 -82 108 -165 134
-182 139 -187 157 -180 26 10 200 140 207 154 7 18 -21 61 -41 61 -8 0 -45
-23 -82 -51 l-67 -50 -27 33 c-15 18 -28 38 -28 44 0 6 16 22 35 35 38 26 47
41 39 64 -11 28 -44 28 -86 -1 l-41 -29 -28 35 c-16 19 -29 37 -29 41 0 4 32
31 71 59 46 35 68 58 65 67 -4 8 -6 18 -6 21 0 4 -9 13 -19 19 -16 10 -26 7
-63 -17z"/>
<path d="M1875 2330 c-42 -16 -48 -34 -40 -126 4 -48 3 -85 -2 -83 -4 2 -41
17 -81 33 l-73 29 -27 -20 c-15 -11 -28 -29 -30 -39 -4 -24 232 -344 253 -344
9 0 27 11 41 25 29 29 30 28 -54 140 -33 44 -59 81 -58 83 2 1 27 -9 56 -22
42 -19 58 -23 73 -14 18 9 19 17 14 76 -4 36 -3 61 2 56 4 -5 36 -46 70 -91
41 -55 69 -83 81 -83 20 0 60 33 60 49 0 14 -236 327 -251 333 -8 3 -23 2 -34
-2z"/>
<path d="M1471 2029 c-22 -13 -32 -26 -29 -37 5 -19 231 -327 247 -336 16 -10
61 16 67 40 4 17 -20 56 -110 177 -64 85 -122 160 -129 165 -10 8 -22 6 -46
-9z"/>
<path d="M1265 1873 c-69 -36 -156 -108 -153 -125 2 -10 56 -90 121 -178 125
-169 143 -183 180 -142 24 27 22 36 -28 104 -39 54 -43 63 -29 71 12 7 41 -3
104 -33 97 -45 123 -44 136 5 9 35 0 44 -83 81 -66 30 -73 36 -63 53 15 29 13
49 -11 97 -36 74 -108 102 -174 67z m71 -91 c11 -7 34 -46 34 -57 0 -8 -62
-65 -71 -65 -4 0 -22 19 -40 41 l-33 42 30 23 c29 24 60 30 80 16z"/>
<path d="M909 1612 c-73 -47 -97 -100 -75 -164 18 -51 143 -216 177 -233 60
-32 121 -14 181 53 44 49 54 88 34 135 -21 52 -48 63 -83 33 -26 -23 -27 -26
-16 -57 17 -44 -4 -79 -46 -79 -24 0 -38 12 -85 75 -72 95 -81 116 -67 144 17
31 55 37 87 12 27 -21 35 -20 67 7 25 22 21 47 -14 76 -43 36 -100 35 -160 -2z"/>
<path d="M607 1192 c-49 -53 13 -140 77 -110 34 15 51 59 35 90 -6 12 -17 26
-23 30 -21 14 -73 8 -89 -10z"/>
<path d="M610 4050 c-27 -27 -26 -71 3 -98 29 -28 57 -28 91 -1 33 26 34 68 3
97 -29 27 -71 28 -97 2z"/>
<path d="M950 3962 c-42 -21 -140 -137 -176 -209 -19 -39 -24 -60 -19 -83 15
-67 99 -130 176 -130 33 0 47 6 76 35 29 29 33 37 23 55 -6 12 -22 26 -35 32
-19 8 -28 6 -54 -13 -25 -19 -35 -21 -55 -11 -29 13 -41 44 -27 71 6 11 38 54
71 95 65 82 91 94 125 55 16 -17 17 -24 7 -51 -13 -36 -2 -65 31 -77 44 -17
90 61 72 119 -17 52 -114 130 -162 130 -10 0 -34 -8 -53 -18z"/>
<path d="M1257 3728 c-118 -147 -217 -282 -217 -299 0 -24 43 -53 67 -45 10 4
36 31 57 61 42 58 44 59 64 47 10 -7 9 -27 -5 -106 -15 -88 -15 -98 -1 -113
19 -19 67 -21 78 -3 5 8 11 34 14 59 14 100 15 101 52 101 25 0 44 9 73 36 73
65 75 138 8 201 -49 45 -128 103 -143 103 -7 0 -28 -19 -47 -42z m103 -98 c41
-29 47 -56 19 -86 -28 -30 -56 -30 -93 0 l-29 24 32 41 c18 23 35 41 38 41 3
0 18 -9 33 -20z"/>
<path d="M1587 3478 c-19 -24 -78 -99 -131 -167 -89 -115 -95 -126 -83 -145
14 -20 62 -45 71 -35 37 41 246 325 246 334 0 14 -46 55 -61 55 -4 0 -23 -19
-42 -42z"/>
<path d="M1665 3228 c-65 -83 -120 -160 -123 -170 -2 -10 4 -28 13 -38 34 -38
56 -26 129 70 38 50 71 90 73 90 2 0 2 -8 0 -17 -3 -10 -8 -39 -12 -65 -6 -44
-4 -49 17 -59 19 -8 34 -6 72 11 27 11 50 19 52 18 1 -2 -26 -41 -62 -87 -35
-46 -64 -92 -64 -102 0 -20 36 -49 60 -49 14 1 243 290 256 325 9 21 -33 65
-61 65 -12 0 -55 -13 -94 -30 l-72 -29 5 27 c3 15 8 53 12 85 6 52 4 61 -17
83 -43 46 -57 36 -184 -128z"/>
<path d="M3588 2408 c-31 -23 -40 -66 -22 -96 9 -15 323 -259 697 -542 374
-284 682 -520 684 -525 1 -6 -95 -138 -215 -295 -119 -157 -226 -298 -238
-314 l-20 -28 -795 603 c-853 648 -839 639 -888 590 -26 -26 -27 -72 -3 -99
36 -43 1641 -1250 1668 -1255 73 -14 80 -6 371 377 149 198 277 372 284 387
17 42 4 91 -34 126 -17 17 -342 266 -722 554 -487 369 -699 524 -720 527 -16
2 -38 -3 -47 -10z"/>
<path d="M3244 2262 c-6 -4 -66 -78 -134 -165 -98 -127 -121 -162 -114 -177
12 -26 185 -160 206 -160 10 0 25 12 35 26 19 30 25 22 -86 114 l-42 35 31 38
32 37 39 -31 c43 -34 73 -33 85 3 5 17 -2 29 -35 58 l-43 35 23 30 c12 17 26
34 30 39 4 5 39 -14 77 -43 38 -28 74 -51 79 -51 14 0 43 34 43 51 0 14 -172
153 -202 164 -7 3 -18 1 -24 -3z"/>
<path d="M3422 1869 c-133 -172 -141 -193 -86 -218 33 -14 37 -11 105 81 28
38 53 67 56 65 2 -3 -3 -48 -12 -101 -20 -130 -20 -152 7 -170 12 -9 30 -16
39 -16 14 0 197 226 253 312 17 27 17 28 -8 53 -14 14 -31 25 -39 25 -8 0 -45
-39 -82 -87 -37 -49 -65 -79 -62 -68 3 11 13 69 23 129 l17 109 -27 24 c-15
13 -35 23 -44 23 -10 0 -67 -65 -140 -161z"/>
<path d="M3894 1762 c-6 -4 -66 -78 -133 -165 -85 -110 -121 -163 -117 -175 7
-22 189 -162 210 -162 14 0 46 36 46 52 0 4 -31 33 -70 64 l-70 56 31 39 31
39 42 -30 c46 -33 71 -32 82 3 5 16 -3 28 -35 57 l-43 35 23 30 c12 17 26 34
30 39 4 5 39 -14 77 -43 38 -28 74 -51 79 -51 14 0 43 34 43 51 0 14 -172 153
-202 164 -7 3 -18 1 -24 -3z"/>
<path d="M4381 1184 c-12 -15 -21 -34 -21 -44 0 -31 39 -70 71 -70 62 0 92 78
47 120 -31 28 -72 26 -97 -6z"/>
</g>
</svg>
