<?xml version="1.0" standalone="no"?>
<!DOCTYPE svg PUBLIC "-//W3C//DTD SVG 20010904//EN"
 "http://www.w3.org/TR/2001/REC-SVG-20010904/DTD/svg10.dtd">
<svg version="1.0" xmlns="http://www.w3.org/2000/svg"
 width="512.000000pt" height="512.000000pt" viewBox="0 0 512.000000 512.000000"
 preserveAspectRatio="xMidYMid meet">

<g transform="translate(0.000000,512.000000) scale(0.100000,-0.100000)"
fill="#000000" stroke="none">
<path d="M2405 5106 c-70 -17 -111 -41 -171 -98 -33 -31 -61 -71 -79 -110 -35
-77 -41 -156 -50 -641 l-8 -358 -70 -35 c-81 -41 -163 -114 -209 -188 -17 -28
-33 -52 -34 -54 -1 -2 -35 12 -76 31 -97 47 -203 63 -300 47 -142 -24 -290
-126 -361 -247 -88 -152 -90 -359 -4 -508 23 -40 23 -41 6 -95 -22 -69 -24
-224 -4 -300 8 -30 30 -86 50 -124 20 -38 35 -70 33 -71 -2 -1 -48 -19 -103
-39 -169 -63 -232 -111 -287 -220 -46 -92 -428 -1004 -444 -1061 -60 -217 79
-434 304 -475 143 -26 302 44 380 167 16 26 112 238 213 470 l183 422 309 116
c169 65 317 120 328 122 23 6 79 -41 79 -66 0 -9 -263 -279 -584 -601 -677
-677 -641 -632 -641 -810 0 -95 3 -111 29 -163 36 -74 104 -140 186 -179 58
-28 75 -32 155 -32 82 -1 96 2 160 32 60 29 94 58 257 220 176 175 188 190
188 224 0 40 -35 78 -73 78 -13 0 -85 -64 -196 -173 -198 -195 -218 -211 -285
-228 -99 -25 -214 31 -257 125 -25 55 -24 139 2 196 15 34 158 183 604 630
322 323 589 598 595 613 13 36 13 98 0 132 -14 36 -95 120 -135 139 -63 30
-97 22 -455 -113 -187 -71 -351 -136 -363 -144 -15 -10 -83 -154 -216 -461
-107 -245 -205 -461 -219 -480 -13 -18 -47 -46 -75 -61 -121 -66 -263 -15
-319 114 -37 85 -30 107 202 661 116 277 218 516 225 530 17 32 61 73 100 93
17 9 150 59 295 113 328 120 353 131 459 201 67 44 166 136 439 407 195 193
360 363 368 378 33 63 24 79 -119 226 -135 138 -152 160 -168 215 -12 44 17
1087 32 1137 29 96 136 167 235 157 95 -10 161 -60 199 -151 13 -30 16 -71 14
-190 -1 -100 2 -160 10 -174 13 -25 50 -37 87 -28 43 11 54 56 54 223 0 194
-17 251 -99 345 -93 105 -236 148 -376 114z"/>
<path d="M3675 4296 c-288 -66 -509 -315 -540 -610 l-8 -68 -134 133 -135 134
5 131 c6 170 -7 204 -77 204 -12 0 -33 -12 -47 -26 -23 -25 -24 -31 -27 -200
l-4 -175 194 -195 c106 -107 208 -205 227 -216 21 -14 50 -21 79 -21 37 0 49
5 69 28 20 23 24 35 19 64 -3 20 -8 70 -12 111 -21 248 165 495 417 555 129
30 241 16 368 -46 287 -141 386 -506 212 -778 -110 -171 -334 -273 -530 -242
-40 6 -71 7 -87 1 -36 -14 -58 -72 -49 -129 7 -44 20 -59 329 -371 294 -296
324 -329 336 -373 7 -26 10 -66 7 -90 -3 -23 -72 -260 -152 -526 -155 -515
-160 -527 -237 -579 -61 -40 -156 -43 -225 -8 -83 41 -123 108 -123 203 0 41
30 152 120 450 74 244 118 404 114 417 -8 27 -180 203 -217 222 -17 9 -40 13
-56 9 -38 -8 -1571 -1542 -1571 -1571 0 -39 37 -74 78 -74 35 0 66 29 774 737
l738 738 49 -50 49 -50 -111 -360 c-110 -358 -111 -360 -111 -465 -1 -94 2
-111 26 -162 37 -79 98 -142 177 -181 61 -30 72 -32 171 -32 98 0 109 2 165
31 66 35 142 110 173 170 11 21 86 260 168 529 136 451 148 496 148 571 l1 81
70 34 c137 65 246 207 275 357 15 74 8 199 -14 259 -15 42 -14 44 14 102 74
149 79 325 13 476 -46 106 -146 217 -239 267 -38 20 -44 28 -54 73 -7 27 -32
92 -58 144 -79 163 -220 284 -405 348 -90 31 -268 40 -362 19z"/>
</g>
</svg>
