<?xml version="1.0" standalone="no"?>
<!DOCTYPE svg PUBLIC "-//W3C//DTD SVG 20010904//EN"
 "http://www.w3.org/TR/2001/REC-SVG-20010904/DTD/svg10.dtd">
<svg version="1.0" xmlns="http://www.w3.org/2000/svg"
 width="512.000000pt" height="512.000000pt" viewBox="0 0 512.000000 512.000000"
 preserveAspectRatio="xMidYMid meet">

<g transform="translate(0.000000,512.000000) scale(0.100000,-0.100000)"
fill="#000000" stroke="none">
<path d="M2365 5105 c-494 -74 -916 -428 -1074 -903 -24 -71 -61 -235 -61
-268 0 -1 -16 -8 -36 -14 -47 -16 -100 -64 -126 -114 -17 -32 -20 -53 -16
-107 6 -72 26 -112 80 -159 29 -25 29 -26 13 -62 -21 -53 -22 -323 0 -375 38
-91 118 -148 223 -159 l59 -7 18 -56 c79 -252 295 -513 538 -650 l57 -32 0
-75 c0 -96 -17 -132 -58 -126 -41 6 -979 -287 -1098 -343 -223 -104 -379 -256
-483 -469 -57 -117 -61 -147 -26 -182 27 -27 27 -28 16 -95 -6 -37 -11 -82
-11 -98 0 -23 -5 -31 -18 -31 -10 0 -28 -11 -41 -24 -22 -23 -22 -25 -19 -339
3 -301 4 -317 24 -343 11 -15 33 -37 48 -48 l27 -21 2159 0 2159 0 27 21 c15
11 37 33 48 48 20 27 21 39 21 434 -1 386 -2 411 -22 484 -53 189 -129 322
-258 453 -99 101 -180 160 -289 210 -39 18 -298 104 -575 190 -415 129 -511
156 -542 151 -34 -5 -41 -3 -55 20 -11 15 -19 54 -22 98 l-4 73 33 13 c130 54
359 255 452 396 58 88 119 210 142 285 l18 56 59 7 c105 11 185 68 223 159 22
52 21 322 0 375 -16 36 -16 37 13 62 54 47 74 87 80 159 4 54 1 75 -16 107
-26 50 -79 98 -125 113 -37 13 -38 14 -53 106 -26 161 -134 425 -189 461 -16
10 -36 14 -53 11 -23 -5 -31 1 -57 36 -16 23 -44 58 -62 77 -23 26 -29 40 -22
50 21 34 10 72 -33 113 -281 261 -703 389 -1093 332z m887 -1575 c101 -5 219
-12 262 -16 l79 -6 -6 -197 c-5 -163 -10 -212 -30 -292 -52 -200 -133 -346
-272 -485 -352 -355 -887 -404 -1310 -121 -140 93 -289 277 -357 438 -60 144
-79 245 -85 460 l-6 196 59 6 c60 7 446 25 634 31 170 5 835 -4 1032 -14z
m-1872 -179 c0 -76 3 -166 6 -200 l7 -62 -29 6 c-16 4 -41 20 -56 36 -27 29
-28 32 -28 154 0 71 5 135 11 149 10 21 59 55 82 56 4 0 7 -62 7 -139z m2405
124 c47 -23 55 -50 55 -190 0 -122 -1 -125 -27 -154 -16 -16 -41 -32 -57 -36
l-29 -6 7 62 c3 34 6 124 6 200 0 77 3 139 6 139 3 0 21 -7 39 -15z m-1499
-1367 c69 -19 104 -22 274 -21 162 0 207 3 266 19 l71 20 10 -74 c8 -56 19
-86 42 -119 17 -24 29 -48 26 -52 -11 -18 -156 -82 -231 -102 -108 -28 -260
-28 -368 0 -79 21 -216 82 -235 105 -7 8 -1 30 19 70 23 45 30 72 30 117 0 33
4 59 8 59 5 0 44 -10 88 -22z m1711 -860 l23 -21 0 -539 0 -538 -1460 0 -1460
0 0 537 0 537 22 23 21 23 1416 0 1415 0 23 -22z"/>
<path d="M1281 953 l-21 -18 75 -234 c41 -129 80 -238 87 -242 20 -13 84 -11
96 4 5 6 18 48 27 92 10 44 21 84 25 88 4 4 16 -31 26 -79 10 -48 25 -93 32
-101 17 -17 86 -17 100 0 5 6 43 117 83 246 70 225 72 234 54 247 -29 21 -64
17 -75 -8 -5 -13 -31 -95 -56 -183 -25 -88 -49 -166 -53 -173 -4 -7 -20 42
-36 109 -31 128 -43 147 -91 135 -25 -7 -24 -4 -65 -170 -26 -104 -20 -113
-86 119 -25 88 -50 166 -55 173 -15 17 -42 15 -67 -5z"/>
<path d="M2012 958 c-5 -7 -41 -116 -80 -243 l-71 -230 20 -17 c43 -36 70 -21
88 50 l12 42 82 0 83 0 13 -51 c7 -28 19 -53 27 -56 21 -8 64 6 70 22 7 18
-133 477 -149 487 -19 12 -84 9 -95 -4z m82 -215 c14 -50 26 -94 26 -97 0 -3
-26 -6 -59 -6 l-59 0 25 88 c29 105 32 116 37 111 2 -2 15 -45 30 -96z"/>
<path d="M2322 962 c-9 -7 -12 -64 -10 -252 3 -265 5 -271 61 -256 l26 6 3
148 3 147 73 -135 c84 -153 96 -170 128 -170 51 0 54 13 54 260 0 246 -3 260
-54 260 -41 0 -46 -16 -46 -164 l0 -141 -71 135 c-39 74 -78 143 -87 153 -16
18 -58 23 -80 9z"/>
<path d="M2714 956 c-3 -8 -4 -25 -2 -38 3 -21 9 -23 66 -26 l62 -3 0 -214 c0
-207 1 -214 21 -220 11 -4 31 -4 45 -1 l24 6 2 213 3 212 60 5 60 5 0 35 0 35
-168 3 c-139 2 -168 0 -173 -12z"/>
<path d="M3120 951 c-6 -12 -10 -108 -10 -241 0 -133 4 -229 10 -241 10 -17
23 -19 154 -19 157 0 174 6 162 55 -6 25 -7 25 -116 25 l-110 0 0 70 0 70 49
0 c67 0 81 7 81 40 0 33 -14 40 -81 40 l-49 0 0 70 0 70 110 0 c109 0 110 0
116 25 12 49 -5 55 -162 55 -131 0 -144 -2 -154 -19z"/>
<path d="M3502 958 c-17 -17 -17 -479 0 -496 20 -20 195 -15 245 7 69 32 78
60 78 241 0 181 -9 209 -78 241 -50 22 -225 27 -245 7z m202 -89 c26 -20 26
-21 26 -159 0 -138 0 -139 -26 -159 -18 -14 -41 -21 -70 -21 l-44 0 0 180 0
180 44 0 c29 0 52 -7 70 -21z"/>
</g>
</svg>
